<?xml version="1.0" standalone="no"?>
<!DOCTYPE svg PUBLIC "-//W3C//DTD SVG 20010904//EN"
 "http://www.w3.org/TR/2001/REC-SVG-20010904/DTD/svg10.dtd">
<svg version="1.0" xmlns="http://www.w3.org/2000/svg"
 width="32.000000pt" height="29.000000pt" viewBox="0 0 32.000000 29.000000"
 preserveAspectRatio="xMidYMid meet">

<g transform="translate(0.000000,29.000000) scale(0.100000,-0.100000)"
fill="#000000" stroke="none">
<path d="M82 238 c-7 -7 -12 -20 -12 -30 0 -10 -4 -18 -10 -18 -5 0 -10 10
-10 23 -1 22 -1 22 -15 -3 -18 -31 -18 -97 -1 -129 13 -24 14 -24 25 -3 15 28
14 79 -1 86 -9 3 -8 8 5 16 9 6 17 19 17 28 0 10 5 23 12 30 7 7 10 12 7 12
-3 0 -10 -5 -17 -12z m-25 -135 c-3 -10 -5 -2 -5 17 0 19 2 27 5 18 2 -10 2
-26 0 -35z"/>
</g>
</svg>
